HIERARCHY
ROOT Model_Hips
{
	OFFSET 0.000000 96.915077 0.000000
	CHANNELS 6 Xposition Yposition Zposition Xrotation Yrotation Zrotation
	JOINT Model_Spine
	{
		OFFSET 0.000000 11.137703 -1.289900
		CHANNELS 3 Xrotation Yrotation Zrotation
		JOINT Model_Spine1
		{
			OFFSET 0.000000 12.993942 -1.504922
			CHANNELS 3 Xrotation Yrotation Zrotation
			JOINT Model_Spine2
			{
				OFFSET 0.000000 14.850220 -1.719911
				CHANNELS 3 Xrotation Yrotation Zrotation
				JOINT Model_Neck
				{
					OFFSET 0.000000 16.706543 -1.934903
					CHANNELS 3 Xrotation Yrotation Zrotation
					JOINT Model_Head
					{
						OFFSET 0.000000 10.471298 2.002100
						CHANNELS 3 Xrotation Yrotation Zrotation
						JOINT Model_HeadTop_End
						{
							OFFSET 0.000000 20.842606 3.985100
							CHANNELS 3 Xrotation Yrotation Zrotation
							End Site
							{
								OFFSET 0.000000 21.220154 0.000000
							}
						}
					}
				}
				JOINT Model_LeftShoulder
				{
					OFFSET 7.008500 14.768600 -1.919946
					CHANNELS 3 Xrotation Yrotation Zrotation
					JOINT Model_LeftArm
					{
						OFFSET 14.126271 -3.718048 0.029937
						CHANNELS 3 Xrotation Yrotation Zrotation
						JOINT Model_LeftForeArm
						{
							OFFSET 28.282801 0.000000 0.000000
							CHANNELS 3 Xrotation Yrotation Zrotation
							JOINT Model_LeftHand
							{
								OFFSET 26.204689 0.000000 0.000000
								CHANNELS 3 Xrotation Yrotation Zrotation
								End Site
								{
									OFFSET 26.204704 0.000000 0.000000
								}
							}
						}
					}
				}
				JOINT Model_RightShoulder
				{
					OFFSET -7.008500 14.768555 -1.949840
					CHANNELS 3 Xrotation Yrotation Zrotation
					JOINT Model_RightArm
					{
						OFFSET -14.126281 -3.718018 -0.029932
						CHANNELS 3 Xrotation Yrotation Zrotation
						JOINT Model_RightForeArm
						{
							OFFSET -28.283798 0.000000 -0.000001
							CHANNELS 3 Xrotation Yrotation Zrotation
							JOINT Model_RightHand
							{
								OFFSET -26.204193 0.000000 -0.000001
								CHANNELS 3 Xrotation Yrotation Zrotation
								End Site
								{
									OFFSET -26.204208 0.000000 -0.000001
								}
							}
						}
					}
				}
			}
		}
	}
	JOINT Model_LeftUpLeg
	{
		OFFSET 8.327700 -6.193199 -0.402800
		CHANNELS 3 Xrotation Yrotation Zrotation
		JOINT Model_LeftLeg
		{
			OFFSET 0.735802 -42.108742 -0.610721
			CHANNELS 3 Xrotation Yrotation Zrotation
			JOINT Model_LeftFoot
			{
				OFFSET -0.735806 -36.833748 -0.172876
				CHANNELS 3 Xrotation Yrotation Zrotation
				JOINT Model_LeftToeBase
				{
					OFFSET -0.565857 -11.977769 16.297714
					CHANNELS 3 Xrotation Yrotation Zrotation
					JOINT Model_LeftToe_End
					{
						OFFSET -0.111712 -0.312793 7.857784
						CHANNELS 3 Xrotation Yrotation Zrotation
						End Site
						{
							OFFSET -0.111712 -0.312793 7.857784
						}
					}
				}
			}
		}
	}
	JOINT Model_RightUpLeg
	{
		OFFSET -8.327700 -6.193199 -0.516500
		CHANNELS 3 Xrotation Yrotation Zrotation
		JOINT Model_RightLeg
		{
			OFFSET -0.735785 -42.108738 -0.434061
			CHANNELS 3 Xrotation Yrotation Zrotation
			JOINT Model_RightFoot
			{
				OFFSET 0.735776 -36.833748 -0.021630
				CHANNELS 3 Xrotation Yrotation Zrotation
				JOINT Model_RightToeBase
				{
					OFFSET 0.565817 -11.977745 15.903093
					CHANNELS 3 Xrotation Yrotation Zrotation
					JOINT Model_RightToe_End
					{
						OFFSET 0.111702 -0.312791 7.811342
						CHANNELS 3 Xrotation Yrotation Zrotation
						End Site
						{
							OFFSET 0.111702 -0.312791 7.811342
						}
					}
				}
			}
		}
	}
}
MOTION
Frames: 11
Frame Time: 0.016667
1.327116 87.740189 1.146848 7.259919 11.433253 -12.197185 10.951772 -1.180513 0.852346 0.873915 -0.398866 0.529161 0.871128 -0.414149 0.535543 -6.877238 0.819288 2.459211 -6.873312 0.847070 2.462436 0.000000 0.000001 -0.000000 0.697512 -8.950705 -14.543860 8.146958 -29.405750 -51.297927 -0.000003 -51.066459 0.000004 0.000000 -0.000001 0.000000 3.316516 -2.027997 18.396624 24.600571 -3.460665 47.499147 -0.000026 64.556257 0.000047 0.000001 -0.000002 0.000000 -0.224367 7.015269 -6.816244 36.187712 -9.220383 -2.503213 -23.093626 -8.609873 29.795966 -18.677038 0.004278 -0.824005 0.000000 -0.000000 -0.000000 -45.223646 2.363162 -17.084439 122.836294 10.812368 1.325209 -14.275828 12.546439 6.514537 -4.301588 0.000003 -0.000009 0.000000 0.000000 0.000000 
1.215902 89.339050 6.609191 8.891279 14.133115 -14.216638 9.947432 -4.702885 2.861585 0.623019 -1.438311 0.851693 0.612269 -1.455248 0.862299 -6.993596 1.154607 2.595726 -6.978771 1.185530 2.623599 0.000001 -0.000000 0.000000 0.827576 -8.158543 -13.135338 10.230252 -32.078246 -48.661734 0.000048 -60.020936 0.000067 -0.000000 -0.000001 0.000001 3.417909 -2.819985 17.466950 28.744960 -4.127913 47.440479 0.000055 66.422347 -0.000044 -0.000000 -0.000000 -0.000000 3.638367 9.260948 -1.962175 30.244890 -9.782487 -2.762153 -18.062428 -10.970739 26.530929 -25.663760 0.000006 0.000008 0.000000 0.000000 -0.000000 -48.343502 -0.433252 -15.321849 116.209071 5.331313 1.083480 -16.460812 12.270620 5.487924 -1.967601 -0.000004 0.000000 -0.000004 -0.000001 0.000001 
1.178402 90.803345 11.975850 10.491896 15.826332 -16.087851 9.267531 -7.417946 4.573612 0.325230 -2.240558 1.179386 0.306779 -2.253990 1.200217 -7.233615 1.435403 2.758032 -7.208763 1.467625 2.808986 0.000000 0.000000 0.000000 0.946920 -6.836636 -12.158116 11.895506 -33.747927 -45.409099 -0.000021 -68.597680 0.000006 0.000003 -0.000000 0.000000 3.428523 -3.157314 16.693353 32.032604 -4.988562 47.302506 -0.000107 68.061442 0.000137 -0.000002 0.000000 -0.000001 6.772686 11.779520 1.624253 24.089570 -8.905040 -2.464264 -12.752862 -11.691009 23.487627 -27.799720 0.000011 -0.000006 0.000000 0.000000 -0.000000 -50.978469 -2.151626 -13.359543 109.344901 0.516213 1.079671 -18.822231 12.140963 2.913812 0.214178 -0.000008 0.000010 -0.000001 -0.000000 -0.000000 
1.192083 92.152977 17.270523 12.000687 16.876159 -17.748317 8.769662 -9.531977 6.020774 0.024943 -2.867106 1.484076 -0.000086 -2.874050 1.518185 -7.526430 1.670626 2.940617 -7.492489 1.703243 3.012532 0.000000 0.000000 0.000000 1.036732 -5.310455 -11.455497 12.970939 -34.658425 -42.013624 0.000163 -76.697383 0.000159 -0.000001 0.000002 -0.000000 3.392688 -3.208298 16.037856 34.798192 -5.908954 47.207556 -0.000027 69.563810 0.000048 -0.000002 -0.000001 0.000001 8.536049 14.011787 4.800423 19.234233 -8.032648 -2.779962 -4.942620 -11.199375 21.853802 -32.548088 0.009998 -0.097699 0.000000 0.000000 -0.000000 -52.855877 -2.977783 -11.426747 101.953926 -2.554392 1.268803 -20.697806 12.132263 -0.314217 2.118150 0.000008 -0.000011 -0.000002 -0.000001 0.000001 
1.290117 93.383125 22.495499 13.278076 17.310828 -19.137434 8.353385 -10.961494 7.190251 -0.230309 -3.290210 1.728233 -0.259667 -3.288809 1.776348 -7.845119 1.847967 3.144682 -7.803413 1.880356 3.234063 -0.000000 0.000000 -0.000000 1.105458 -3.696098 -11.038957 13.005254 -34.772360 -38.854983 -0.000387 -84.043838 -0.000400 0.000001 0.000002 0.000003 3.322967 -2.985455 15.525602 37.001006 -6.829985 47.125577 0.000018 70.919227 -0.000002 0.000003 0.000000 0.000001 10.521127 15.819799 6.797430 13.229823 -9.231524 -2.772267 7.339094 -8.351373 21.762461 -43.464397 -0.070604 0.187106 0.000000 0.000000 -0.000000 -53.991870 -2.886937 -9.505417 93.931630 -4.095914 1.459409 -21.967763 11.862541 -2.061779 3.518015 0.000010 -0.000001 -0.000002 0.000000 -0.000002 
1.506960 94.538780 27.708183 14.178674 17.258688 -20.095327 7.942528 -11.715036 7.971745 -0.385875 -3.508449 1.877612 -0.417176 -3.498998 1.937061 -8.150852 1.962895 3.360585 -8.103177 1.994911 3.462573 -0.000000 0.000000 -0.000000 1.164578 -2.156676 -10.858462 11.739344 -34.232502 -36.371188 0.156629 -90.377903 0.155845 -0.000000 0.000002 0.000002 3.237957 -2.585457 15.140392 38.708383 -7.677325 47.069040 -0.000022 72.125479 0.000017 0.000001 0.000000 -0.000002 15.762666 17.307693 7.140348 0.846391 -9.860477 -2.139052 24.209518 -4.825606 16.475132 -51.536625 -1.671104 2.403160 0.000000 0.000000 -0.000000 -54.278820 -2.075917 -7.596901 85.080484 -4.549307 1.433955 -22.370367 11.289047 -2.338727 4.238458 0.000010 0.000000 0.000003 0.000001 0.000002 
1.855661 95.638351 32.970337 14.579988 16.910022 -20.492903 7.534283 -11.865211 8.280916 -0.400070 -3.543708 1.913889 -0.431501 -3.528924 1.978788 -8.403043 2.019827 3.567826 -8.351627 2.051862 3.676433 -0.000000 0.000000 0.000000 1.218615 -0.860812 -10.810238 9.305862 -33.265057 -34.906218 0.000276 -95.503844 0.000253 -0.000001 0.000001 0.000001 3.157754 -2.162628 14.813733 40.060309 -8.379063 47.084916 -0.000254 73.177083 0.000270 0.000003 0.000000 -0.000001 17.010368 17.562129 7.851359 1.093494 -9.148524 -0.762712 29.035274 -1.753793 13.165269 -39.665760 -0.907192 1.633716 0.000000 0.000000 0.000000 -53.443823 -0.835222 -5.801229 75.221106 -4.047828 1.035401 -21.554605 10.664555 -2.544591 4.234021 0.000003 0.000018 -0.000000 -0.000001 0.000002 
2.316801 96.607346 38.314022 14.413967 16.467294 -20.321218 7.210468 -11.521793 8.145683 -0.263045 -3.432105 1.842133 -0.293511 -3.416347 1.905098 -8.568554 2.030353 3.740162 -8.515900 2.063191 3.848964 0.000000 -0.000000 -0.000000 1.261090 0.057968 -10.771581 6.262252 -32.046513 -34.596732 -0.000453 -99.322220 -0.000511 -0.000001 -0.000000 -0.000000 3.098562 -1.871002 14.436016 41.203625 -8.883417 47.236096 0.000056 74.056627 -0.000010 0.000002 0.000001 0.000001 19.574911 17.065491 7.418661 1.369311 -6.259118 1.147854 31.727277 0.714254 12.190237 -10.722202 0.313987 -2.971525 -0.000001 -0.000001 0.000002 -51.314982 0.529693 -4.349855 64.571686 -3.084233 0.243594 -20.066549 10.131460 -3.480287 3.622204 -0.000001 -0.000010 0.000001 0.000000 0.000000 
2.862635 97.369675 43.753662 13.677961 16.054804 -19.616081 7.070120 -10.776585 7.620636 -0.005739 -3.214181 1.690003 -0.034651 -3.201961 1.744513 -8.627528 2.009656 3.854261 -8.576194 2.044190 3.957135 -0.000000 0.000000 0.000000 1.282090 0.534900 -10.642886 3.428178 -30.665668 -35.327723 0.000033 -101.845545 0.000008 -0.000002 -0.000001 -0.000001 3.065328 -1.801226 13.891869 42.225377 -9.172849 47.576243 0.000256 74.737125 -0.000213 0.000000 0.000000 -0.000000 21.163940 15.658934 6.609033 5.850162 -2.836159 3.283748 30.904403 2.738922 13.358273 -1.526327 -0.000003 -0.000003 0.000002 0.000000 0.000001 -47.959601 1.689789 -3.500056 53.563395 -2.434171 -0.803039 -19.014760 9.686373 -5.158625 2.641131 -0.000002 0.000026 -0.000000 0.000000 0.000001 
3.446625 97.777824 49.182652 12.503512 15.822215 -18.686843 7.201044 -9.801880 7.010533 0.307225 -2.928229 1.498990 0.280324 -2.922642 1.541458 -8.575594 1.972789 3.898228 -8.527792 2.009652 3.990277 0.000000 0.000000 -0.000000 1.279910 0.595462 -10.394644 1.607242 -29.201186 -36.784534 0.000011 -103.193428 0.000008 0.000000 -0.000001 -0.000000 3.046755 -1.940875 13.116142 43.113332 -9.277889 48.119984 -0.000037 75.199044 0.000029 -0.000000 -0.000000 -0.000000 21.288889 13.526387 5.881855 14.678382 0.326084 5.315583 27.769119 3.661439 14.542496 -0.688491 -0.000003 0.000001 -0.000001 0.000000 -0.000001 -43.832486 2.293614 -3.232187 42.767913 -2.283197 -1.858649 -18.980923 9.278821 -7.037537 1.549324 -0.000003 0.000009 0.000001 -0.000001 -0.000000 
4.041134 97.822182 54.616455 11.072708 15.744428 -17.591383 7.535971 -8.691794 6.330939 0.599982 -2.607623 1.311605 0.575551 -2.609488 1.342008 -8.423279 1.932096 3.876386 -8.380671 1.971349 3.954553 -0.000000 0.000000 0.000000 1.264609 0.360055 -10.083223 1.329281 -27.794873 -38.591535 0.000022 -103.562818 0.000006 -0.000002 0.000000 -0.000000 3.021051 -2.175169 12.147141 43.760274 -9.288014 48.815314 -0.000241 75.450941 0.000250 -0.000000 0.000001 -0.000000 22.168433 11.289116 4.822000 22.576454 2.410814 6.893402 25.928701 3.636409 13.993741 -1.906017 0.000001 -0.000009 0.000000 0.000000 -0.000002 -39.450466 2.208758 -3.498504 32.746748 -1.847364 -2.666226 -19.549168 8.860834 -8.541729 0.523792 -0.000002 -0.000010 -0.000001 0.000003 -0.000001 
